# AST/ASF file generated using VICON BodyLanguage
# -----------------------------------------------
:version 1.10
:name VICON
:units
  mass 1.0
  length 0.45
  angle deg
:documentation
   .ast/.asf automatically generated from VICON data using
   VICON BodyBuilder and BodyLanguage model FoxedUp or BRILLIANT.MOD
:root
   order TX TY TZ RX RY RZ
   axis XYZ
   position 0 0 0  
   orientation 0 0 0 
:bonedata
  begin
     id 1 
     name lhipjoint
     direction 0.635376 -0.686425 0.353719 
     length 2.47244 
     axis 0 0 0  XYZ
  end
  begin
     id 2 
     name lfemur
     direction 0.34202 -0.939693 0  
     length 7.25268  
     axis 0 0 20  XYZ
    dof rx ry rz
    limits (-160.0 20.0)
           (-70.0 70.0)
           (-60.0 70.0)
  end
  begin
     id 3 
     name ltibia
     direction 0.34202 -0.939693 0   
     length 7.6767   
     axis 0 0 20   XYZ
    dof rx
    limits (-10.0 170.0)
  end
  begin
     id 4 
     name lfoot
     direction 0.0803374 -0.220725 0.972022   
     length 2.22945   
     axis -90 7.62852e-016 20   XYZ
    dof rx rz
    limits (-45.0 90.0)
           (-70.0 20.0)
  end
  begin
     id 5 
     name ltoes
     direction 1.53579e-011 -4.21994e-011 1   
     length 1.11848   
     axis -90 7.62852e-016 20   XYZ
    dof rx
    limits (-90.0 20.0)
  end
  begin
     id 6 
     name rhipjoint
     direction -0.664428 -0.664335 0.342336   
     length 2.55466  
     axis 0 0 0  XYZ 
  end
  begin
     id 7 
     name rfemur
     direction -0.34202 -0.939693 0   
     length 6.83172   
     axis 0 0 -20   XYZ
    dof rx ry rz
    limits (-160.0 20.0)
           (-70.0 70.0)
           (-70.0 60.0)
  end
  begin
     id 8 
     name rtibia
     direction -0.34202 -0.939693 0   
     length 7.62692   
     axis 0 0 -20   XYZ
    dof rx
    limits (-10.0 170.0)
 end
 begin
     id 9 
     name rfoot
     direction -0.0949276 -0.260811 0.960711   
     length 2.19684  
     axis -90 -7.62852e-016 -20   XYZ
    dof rx rz
    limits (-45.0 90.0)
           (-20.0 70.0)
  end
  begin
     id 10 
     name rtoes
     direction -1.53543e-011 -4.2183e-011 1   
     length 1.09848   
     axis -90 -7.62852e-016 -20   XYZ
    dof rx
    limits (-90.0 20.0)
  end
  begin
     id 11 
     name lowerback
     direction 0.0118782 0.999815 -0.0151555   
     length 2.15772   
     axis 0 0 0   XYZ
    dof rx ry rz
    limits (-20.0 45.0)
           (-30.0 30.0)
           (-30.0 30.0)
  end
  begin
     id 12 
     name upperback
     direction 0.00130825 0.999065 0.0432113   
     length 2.14863   
     axis 0 0 0   XYZ
    dof rx ry rz
    limits (-20.0 45.0)
           (-30.0 30.0)
           (-30.0 30.0)
  end
  begin
     id 13 
     name thorax
     direction -0.00347005 0.998773 0.0494011   
     length 2.14936   
     axis 0 0 0   XYZ
    dof rx ry rz
    limits (-20.0 45.0)
           (-30.0 30.0)
           (-30.0 30.0)
  end
  begin
     id 14 
     name lowerneck
     direction -0.0262159 0.99424 0.103921   
     length 1.69373   
     axis 0 0 0   XYZ
    dof rx ry rz
    limits (-20.0 45.0)
           (-30.0 30.0)
           (-30.0 30.0)
  end
  begin
     id 15 
     name upperneck
     direction 0.0353511 0.977394 -0.20845   
     length 1.70857   
     axis 0 0 0   XYZ
    dof rx ry rz
    limits (-20.0 45.0)
           (-30.0 30.0)
           (-30.0 30.0)
  end
  begin
     id 16
     name head
     direction 0.0139214 0.996594 -0.0812836  
     length 1.72777  
     axis 0 0 0   XYZ
    dof rx ry rz
    limits (-20.0 45.0)
           (-30.0 30.0)
           (-30.0 30.0)
  end
  begin
     id 17 
     name lclavicle
     direction 0.841247 0.537205 -0.0609508  
     length 3.55371  
     axis 0 0 0   XYZ
    dof ry rz
    limits (-20.0 10.0)
           (0.0 20.0)
  end
  begin
     id 18 
     name lhumerus
     direction 1 -4.48964e-011 1.60116e-018   
     length 4.91377   
     axis -180 -30 -90   XYZ
    dof rx ry rz
    limits (-60.0 90.0)
           (-90.0 90.0)
           (-90.0 90.0)
  end
  begin
     id 19
     name lradius
     direction 1 -4.48989e-011 -8.93847e-027   
     length 3.00291   
     axis -180 -30 -90   XYZ
    dof rx
    limits (-10.0 170.0)
  end
  begin
     id 20
     name lwrist
     direction 1 -4.48932e-011 -7.31504e-027   
     length 1.50145   
     axis 5.74121e-015 90 90   XYZ
    dof ry
    limits (-180.0 0.0)
 end
  begin
     id 21 
     name lhand
     direction 1 -4.48971e-011 -1.46301e-026   
     length 0.450922   
     axis 9.33524e-015 90 90   XYZ
    dof rx rz
    limits (-90.0 90.0)
           (-45.0 45.0)
  end
  begin
     id 22 
     name lfingers
     direction 1 -4.49039e-011 -2.92602e-026   
     length 0.363545   
     axis 1.86705e-014 90 90   XYZ
    dof rx
    limits (0.0 90.0)
  end
  begin
     id 23
     name lthumb
     direction 0.707107 -6.34941e-011 0.707107   
     length 0.52198   
     axis -90 45 2.85299e-015   XYZ
    dof rx rz
    limits (-45.0 45.0)
           (-45.0 45.0)
  end
  begin
     id 24 
     name rclavicle
     direction -0.825079 0.56158 -0.0622297   
     length 3.39909  
     axis 0 0 0   XYZ 
    dof ry rz
    limits (-10.0 20.0)
           (-20.0 0.0)
  end
  begin
     id 25 
     name rhumerus
     direction -1 -4.48965e-011 1.61691e-027  
     length 4.86725   
     axis -180 30 90   XYZ
    dof rx ry rz
    limits (-90.0 60.0)
           (-90.0 90.0)
           (-90.0 90.0)
  end
  begin
     id 26 
     name rradius
     direction -1 -4.48964e-011 -2.25776e-027   
     length 3.17144   
     axis -180 30 90   XYZ
    dof rx
    limits (-10.0 170.0)
  end
  begin
     id 27 
     name rwrist
     direction -1 -4.48961e-011 -7.31504e-027   
     length 1.58572   
     axis 5.74121e-015 -90 -90   XYZ
    dof ry
    limits (-180.0 0.0)
  end
  begin
     id 28
     name rhand
     direction -1 -4.49013e-011 -1.46301e-026   
     length 0.419368   
     axis 9.33524e-015 -90 -90   XYZ
    dof rx rz
    limits (-90.0 90.0)
           (-45.0 45.0)
  end
  begin
     id 29
     name rfingers
     direction -1 -4.489e-011 -2.92602e-026   
     length 0.338105   
     axis 1.86705e-014 -90 -90   XYZ
    dof rx
    limits (0.0 90.0)
  end
  begin
     id 30
     name rthumb
     direction -0.707107 -6.35022e-011 0.707107   
     length 0.485453   
     axis -90 -45 -2.85299e-015   XYZ
    dof rx rz
    limits (-45.0 45.0)
           (-45.0 45.0)
  end
:hierarchy
  begin
    root lhipjoint rhipjoint lowerback
    lhipjoint lfemur
    lfemur ltibia
    ltibia lfoot
    lfoot ltoes
    rhipjoint rfemur
    rfemur rtibia
    rtibia rfoot
    rfoot rtoes
    lowerback upperback
    upperback thorax
    thorax lowerneck lclavicle rclavicle
    lowerneck upperneck
    upperneck head
    lclavicle lhumerus
    lhumerus lradius
    lradius lwrist
    lwrist lhand lthumb
    lhand lfingers
    rclavicle rhumerus
    rhumerus rradius
    rradius rwrist
    rwrist rhand rthumb
    rhand rfingers
  end

#!OML:ASF H:\Swim 2\Project 1\Capture day 1\Session 1\male.ASF
:FULLY-SPECIFIED
:DEGREES
363
root 7.4851 10.0329 11.9538 100.03 -0.0189594 6.35292
lowerback -10.4047 4.02716 -3.45535
upperback -3.0444 5.85493 -0.68217
thorax 2.36538 2.96897 1.92847
lowerneck -26.6253 -9.32356 -0.851269
upperneck 29.9353 -14.3411 4.1362
head 15.3306 -5.34909 -1.07819
rclavicle -1.59028e-014 5.96354e-016
rhumerus 90.3935 -29.5371 -29.979
rradius 38.7728
rwrist -47.8386
rhand -29.3819 -7.23617
rfingers 7.12502
rthumb -2.72055 -37.1986
lclavicle -1.59028e-014 5.96354e-016
lhumerus 107.506 9.54146 58.1875
lradius 44.2435
lwrist 46.4614
lhand -29.0842 2.64291
lfingers 7.12502
lthumb -2.43299 32.6088
rfemur -36.4561 -16.8228 -12.5813
rtibia 105.005
rfoot 20.2287 -0.158602
rtoes 21.3052
lfemur -39.4755 -0.832547 11.1718
ltibia 106.319
lfoot 0.374579 13.2454
ltoes 32.7663
364
root 7.47842 10.0313 11.9818 100.283 -0.0141457 6.44046
lowerback -10.5506 3.93879 -3.49543
upperback -3.09436 5.74688 -0.698747
thorax 2.39703 2.91501 1.93117
lowerneck -26.5936 -9.32506 -0.799783
upperneck 29.9707 -14.35 4.08963
head 15.3305 -5.35306 -1.10572
rclavicle 6.36111e-014 5.96354e-015
rhumerus 90.9562 -29.5796 -30.189
rradius 37.7631
rwrist -45.9153
rhand -28.9871 -7.22482
rfingers 7.12502
rthumb -2.33926 -37.1917
lclavicle 6.36111e-014 5.96354e-015
lhumerus 107.923 9.46178 58.3505
lradius 42.9408
lwrist 45.5821
lhand -28.8442 1.90423
lfingers 7.12502
lthumb -2.20121 31.8726
rfemur -35.6397 -16.0375 -12.4048
rtibia 102.362
rfoot 20.1814 -1.06929
rtoes 21.1953
lfemur -38.7659 -1.33662 11.1523
ltibia 103.57
lfoot 0.257106 15.0652
ltoes 33.9801
365
root 7.47191 10.0288 12.0072 100.61 -0.0177288 6.49318
lowerback -10.7798 3.85352 -3.54663
upperback -3.15519 5.64841 -0.720295
thorax 2.46188 2.86548 1.94189
lowerneck -26.5678 -9.33584 -0.767227
upperneck 30.003 -14.3711 4.06328
head 15.3345 -5.36112 -1.12515
rclavicle -2.8625e-014 7.00716e-015
rhumerus 91.4536 -29.6515 -30.3033
rradius 36.7566
rwrist -43.6635
rhand -28.7903 -7.15467
rfingers 7.12502
rthumb -2.14914 -37.1236
lclavicle -2.8625e-014 7.00716e-015
lhumerus 108.341 9.3598 58.558
lradius 41.5843
lwrist 44.5703
lhand -28.5234 1.06216
lfingers 7.12502
lthumb -1.89141 31.0335
rfemur -34.9382 -15.3187 -12.2315
rtibia 99.6886
rfoot 20.1005 -1.94716
rtoes 21.0993
lfemur -38.1227 -1.71025 11.1356
ltibia 100.768
lfoot 0.105602 16.7136
ltoes 35.0841
366
root 7.46579 10.0251 12.0301 100.997 -0.024826 6.51191
lowerback -11.0806 3.7704 -3.59773
upperback -3.22352 5.5566 -0.745287
thorax 2.55806 2.81882 1.95466
lowerneck -26.5563 -9.34614 -0.757023
upperneck 30.0432 -14.3942 4.06698
head 15.3509 -5.36687 -1.13054
rclavicle 7.95139e-014 -1.31695e-014
rhumerus 91.9049 -29.7431 -30.3467
rradius 35.7296
rwrist -41.0376
rhand -28.7732 -7.00632
rfingers 7.12502
rthumb -2.13268 -36.9754
lclavicle 7.95139e-014 -1.31695e-014
lhumerus 108.755 9.23769 58.8114
lradius 40.1648
lwrist 43.3178
lhand -28.1856 0.204395
lfingers 7.12502
lthumb -1.56518 30.1784
rfemur -34.3371 -14.6466 -12.0576
rtibia 96.9795
rfoot 20.0007 -2.81806
rtoes 21.0228
lfemur -37.5322 -1.96871 11.1215
ltibia 97.9188
lfoot -0.0387494 18.1841
ltoes 36.0712
367
root 7.46028 10.0211 12.0518 101.377 -0.0330587 6.51816
lowerback -11.3797 3.68563 -3.63464
upperback -3.28425 5.46109 -0.769274
thorax 2.66255 2.76985 1.95971
lowerneck -26.5568 -9.34617 -0.763595
upperneck 30.0983 -14.4051 4.09232
head 15.3806 -5.36489 -1.1232
rclavicle -6.36111e-015 1.64246e-014
rhumerus 92.3025 -29.846 -30.3197
rradius 34.6806
rwrist -38.0373
rhand -28.9197 -6.73775
rfingers 7.12502
rthumb -2.27419 -36.7054
lclavicle -6.36111e-015 1.64246e-014
lhumerus 109.137 9.12678 59.0662
lradius 38.7079
lwrist 41.8193
lhand -27.9235 -0.585916
lfingers 7.12502
lthumb -1.312 29.3898
rfemur -33.7439 -14.0045 -11.9038
rtibia 94.2262
rfoot 19.8755 -3.71955
rtoes 21.0504
lfemur -36.9442 -2.17448 11.1014
ltibia 95.0252
lfoot -0.158373 19.5189
ltoes 36.9571
368
root 7.45548 10.0171 12.072 101.724 -0.0411731 6.51665
lowerback -11.651 3.59997 -3.65531
upperback -3.33367 5.3612 -0.789404
thorax 2.76484 2.71835 1.95684
lowerneck -26.5467 -9.33083 -0.792312
upperneck 30.1573 -14.3964 4.1494
head 15.4151 -5.35255 -1.09522
rclavicle 3.18055e-015 -2.86995e-014
rhumerus 92.6366 -29.9596 -30.2278
rradius 33.6187
rwrist -34.6215
rhand -29.1848 -6.34786
rfingers 7.12502
rthumb -2.53023 -36.3126
lclavicle 3.18055e-015 -2.86995e-014
lhumerus 109.455 9.04333 59.2876
lradius 37.2537
lwrist 40.0925
lhand -27.801 -1.27058
lfingers 7.12502
lthumb -1.19374 28.7058
rfemur -33.1315 -13.3723 -11.7704
rtibia 91.4224
rfoot 19.7321 -4.6614
rtoes 21.135
lfemur -36.3385 -2.34816 11.0709
ltibia 92.0966
lfoot -0.253325 20.7584
ltoes 37.7525
369
root 7.45138 10.0129 12.0911 102.026 -0.0456071 6.50234
lowerback -11.8885 3.51336 -3.65488
upperback -3.3672 5.25574 -0.804362
thorax 2.86693 2.6636 1.94435
lowerneck -26.5309 -9.29172 -0.827751
upperneck 30.2233 -14.356 4.21883
head 15.453 -5.32593 -1.05439
rclavicle 2.54444e-014 -1.38155e-014
rhumerus 92.8726 -30.0932 -30.0405
rradius 32.5844
rwrist -30.8381
rhand -29.565 -5.79678
rfingers 7.12502
rthumb -2.8974 -35.7568
lclavicle 2.54444e-014 -1.38155e-014
lhumerus 109.684 9.01697 59.4435
lradius 35.8325
lwrist 38.153
lhand -27.8111 -1.83136
lfingers 7.12502
lthumb -1.20347 28.145
rfemur -32.4882 -12.7408 -11.6566
rtibia 88.5654
rfoot 19.5645 -5.6452
rtoes 21.2154
lfemur -35.7 -2.4832 11.0294
ltibia 89.1414
lfoot -0.336418 21.9396
ltoes 38.4589
370
root 7.44797 10.0091 12.1088 102.275 -0.0463226 6.48233
lowerback -12.0791 3.4222 -3.63008
upperback -3.38386 5.1386 -0.813875
thorax 2.96315 2.60262 1.91901
lowerneck -26.5051 -9.22548 -0.852944
upperneck 30.2939 -14.2775 4.27694
head 15.4876 -5.28445 -1.01104
rclavicle 0 1.64991e-014
rhumerus 93.0142 -30.2393 -29.7918
rradius 31.6018
rwrist -26.6445
rhand -30.0415 -5.09619
rfingers 7.12502
rthumb -3.35758 -35.0495
lclavicle 0 1.64991e-014
lhumerus 109.808 9.06917 59.5063
lradius 34.4626
lwrist 36.0379
lhand -27.914 -2.29851
lfingers 7.12502
lthumb -1.30281 27.6773
rfemur -31.8027 -12.1098 -11.5652
rtibia 85.6607
rfoot 19.3609 -6.66526
rtoes 21.2592
lfemur -35.0301 -2.5853 10.9784
ltibia 86.1738
lfoot -0.442452 23.0966
ltoes 39.0958
371
root 7.4453 10.0044 12.1252 102.515 -0.0418732 6.43911
lowerback -12.2779 3.33044 -3.58563
upperback -3.39301 5.01831 -0.820053
thorax 3.07303 2.5396 1.88604
lowerneck -26.4626 -9.13415 -0.858923
upperneck 30.3606 -14.1623 4.31217
head 15.5112 -5.23025 -0.970981
rclavicle 1.27222e-014 -8.731e-015
rhumerus 93.0418 -30.4058 -29.4743
rradius 30.7037
rwrist -22.1179
rhand -30.5979 -4.27345
rfingers 7.12502
rthumb -3.89482 -34.2176
lclavicle 1.27222e-014 -8.731e-015
lhumerus 109.828 9.19254 59.4863
lradius 33.1425
lwrist 33.7343
lhand -28.0538 -2.78937
lfingers 7.12502
lthumb -1.43788 27.1855
rfemur -31.1267 -11.4984 -11.4898
rtibia 82.7145
rfoot 19.1172 -7.69031
rtoes 21.2408
lfemur -34.3564 -2.61183 10.9206
ltibia 83.2049
lfoot -0.583635 24.213
ltoes 39.6556
372
root 7.44334 9.99914 12.14 102.748 -0.0345382 6.37774
lowerback -12.48 3.22548 -3.50182
upperback -3.39696 4.87497 -0.827278
thorax 3.19459 2.46462 1.82665
lowerneck -26.5455 -8.98176 -0.75156
upperneck 30.5678 -13.9493 4.14037
head 15.5911 -5.14244 -1.01988
rclavicle 5.725e-014 5.63741e-015
rhumerus 93.0429 -30.546 -29.2245
rradius 29.8873
rwrist -17.3409
rhand -31.202 -3.37552
rfingers 7.12502
rthumb -4.47816 -33.3082
lclavicle 5.725e-014 5.63741e-015
lhumerus 109.731 9.41596 59.3646
lradius 31.8604
lwrist 31.2249
lhand -28.206 -3.39737
lfingers 7.12502
lthumb -1.58487 26.5765
rfemur -30.46 -10.9091 -11.4349
rtibia 79.734
rfoot 18.8443 -8.67344
rtoes 21.1939
lfemur -33.6894 -2.56764 10.8576
ltibia 80.2496
lfoot -0.7425 25.2456
ltoes 40.1173
